<svg width="1139" height="418" viewBox="0 0 1139 418" fill="none" xmlns="http://www.w3.org/2000/svg">
<g clip-path="url(#clip0)">
<path d="M1165 295.647C996.315 408.543 905.311 379.71 868.655 315.236M868.655 315.236C817.697 225.607 871.77 67.1028 968.187 124.731C1079 190.963 999.153 293.687 868.655 315.236ZM868.655 315.236C803.928 325.924 726.74 316.643 654.174 273.034C618.87 251.817 593.449 222.605 576.405 189.166M576.405 189.166C767.273 158.048 892.9 -49.1972 777.852 -145.454C625.606 -272.834 487.785 15.3008 576.405 189.166ZM576.405 189.166C466.113 207.148 282.731 160.776 235 -10.4048" stroke="#E9E9F6" stroke-width="6" stroke-linecap="round"/>
<path d="M-109 313.018C106.616 172.523 311.076 271.599 350.418 307.575M350.418 307.575C436.893 386.652 389.267 505.502 306.122 489.112C218.709 471.88 230.567 318.824 350.418 307.575ZM350.418 307.575C396.431 303.256 623.085 351.981 786 517" stroke="#E9E9F6" stroke-width="6" stroke-linecap="round"/>
</g>
<defs>
<clipPath id="clip0">
<rect y="0.691895" width="1139" height="417" rx="51" fill="white"/>
</clipPath>
</defs>
</svg>